<svg width="247" height="65" viewBox="0 0 247 65" fill="none" xmlns="http://www.w3.org/2000/svg">
<g id="Ebene_1" clip-path="url(#clip0_10306_38941)">
<path id="Vector" d="M174.669 42.6879V44.8493L174.511 45.0069H169.085V46.8081H173.521L173.678 46.9657V48.9695L173.521 49.1271H169.085V50.7482H174.511L174.669 50.9058V53.0672L174.511 53.2248H166.676L166.496 53.0672V42.6879L166.676 42.5078H174.511" fill="white"/>
<path id="Vector_2" d="M152.537 50.478V50.5681C151.524 52.3467 149.61 53.4274 147.539 53.4274C144.409 53.4274 141.843 50.9283 141.843 47.8663C141.843 44.8043 144.387 42.3052 147.539 42.3052C149.588 42.3052 151.479 43.3859 152.492 45.142V45.2321L152.447 45.2996L150.308 46.2678L150.173 46.2227C149.61 45.3221 148.642 44.7818 147.561 44.7818C145.85 44.7818 144.477 46.1777 144.477 47.8663C144.477 49.5549 145.85 50.9508 147.561 50.9508C148.642 50.9508 149.633 50.4105 150.173 49.5099L150.308 49.4649L152.47 50.4105" fill="white"/>
<path id="Vector_3" d="M164.042 42.6204V53.1123L163.93 53.2248H161.566L161.453 53.1123V49.1497H156.77V53.1123L156.657 53.2248H154.316L154.203 53.1123V42.6204L154.316 42.5078H156.657L156.77 42.6204V46.7631H161.453V42.6204L161.566 42.5078H163.93" fill="white"/>
<path id="Vector_4" d="M140.041 42.5979V53.0898L139.929 53.2024H137.88L137.79 53.1573L132.769 46.8982V53.0898L132.657 53.2024H130.315L130.203 53.0898V42.5979L130.315 42.4854H132.364L132.454 42.5304L137.452 48.812V42.5979L137.565 42.4854H139.929" fill="white"/>
<path id="Vector_5" d="M186.669 42.5979V53.0898L186.557 53.2024H184.508L184.418 53.1573L179.42 46.8982V53.0898L179.307 53.2024H176.943L176.831 53.0898V42.5979L176.943 42.4854H178.992L179.082 42.5079L184.103 48.7895V42.5979L184.215 42.4854H186.557" fill="white"/>
<path id="Vector_6" d="M127.883 42.5979V48.5418C127.883 51.5138 125.947 53.4275 122.953 53.4275C119.958 53.4275 118.045 51.5588 118.045 48.5418V42.5979L118.157 42.4854H120.521L120.634 42.5979V48.3617C120.634 50.0053 121.467 50.9284 122.953 50.9284C124.439 50.9284 125.317 50.0278 125.317 48.3617V42.5979L125.429 42.4854H127.771" fill="white"/>
<path id="Vector_7" d="M115.928 42.6655V53.0448L115.748 53.2249H113.519L113.339 53.0448V47.6863L110.93 52.707L110.795 52.7971H109.286L109.151 52.707L106.742 47.6863V53.0448L106.562 53.2249H104.333L104.153 53.0448V42.6655L104.333 42.4854H106.697L106.855 42.5754L110.029 49.5775L113.226 42.5754L113.384 42.4854H115.748" fill="white"/>
<path id="Vector_8" d="M122.052 45.795V42.688L122.255 42.4854H123.718L123.898 42.688V45.795L123.718 45.9751H122.255" fill="white"/>
<path id="Vector_9" d="M133.129 12.3606V35.9335H129.392V14.0042L133.129 12.3606Z" fill="white"/>
<path id="Vector_10" fill-rule="evenodd" clip-rule="evenodd" d="M109.106 23.0326C109.106 24.6987 109.669 26.68 110.547 27.6706L113.519 24.7887C111.403 22.4472 111.493 18.1694 112.934 16.796C113.564 16.1881 114.96 16.008 115.996 16.008C120.679 16.008 123.381 19.8355 123.381 24.8563C123.381 28.7738 122.255 31.1604 121.174 32.061C120.499 32.6238 119.305 32.8265 117.167 32.8265C112.236 32.8265 107.553 29.877 107.553 23.7305C107.553 20.3308 109.196 17.2238 111.043 15.5577C109.376 16.3232 106.472 17.9217 105.774 18.9124C104.941 20.0606 103.973 22.3797 103.973 25.5767C103.973 31.2054 108.633 36.2712 115.838 36.2712C117.167 36.2712 118.135 36.0461 121.872 33.0741C124.686 30.8452 126.938 27.3329 126.938 23.0776C126.938 17.3814 123.223 12.7659 117.572 12.7659C116.671 12.7659 115.816 12.9235 114.014 14.2068C110.232 16.8861 109.061 19.5428 109.061 23.0101" fill="white"/>
<path id="Vector_11" d="M200.178 21.7041L201.597 20.1056L202.565 19.0474C203.758 19.6102 205.154 20.781 205.604 22.1094L202.97 25.0138C202.52 24.1357 201.957 23.4152 201.214 22.7848L200.336 23.7755V24.1807V29.8995C200.336 31.9708 200.831 32.8489 202.497 34.1097L201.484 34.7852L199.165 36.3387C197.364 34.8977 196.599 33.4343 196.599 31.2278V25.5091C196.599 23.6404 196.599 22.7173 195.113 21.569L198.197 19.0474C199.143 19.8129 199.908 20.5558 200.201 21.7266" fill="white"/>
<path id="Vector_12" d="M150.646 20.0606L149.115 22.1995H147.269V29.877C147.269 31.9484 147.764 32.8264 149.408 34.0873L148.417 34.7627L146.098 36.3162C144.297 34.8753 143.531 33.4118 143.531 31.2054V17.629L147.269 15.4451V20.0606" fill="white"/>
<path id="Vector_13" d="M141.28 22.402C141.28 24.2482 139.006 26.117 137.182 27.3102C138.308 28.9313 141.055 32.8038 142.676 33.9971L141.527 34.7626L139.208 36.3161C137.295 34.7851 134.57 30.3497 133.287 28.0983C134.525 27.2652 137.34 25.6667 137.34 24.2032C137.34 23.1 135.944 22.2219 132.792 22.5146L132.859 22.0193L134.908 19.7678C135.223 19.4076 135.471 19.3625 136.214 19.3625C137.047 19.3851 141.235 20.1731 141.235 22.3795" fill="white"/>
<path id="Vector_14" d="M229.717 23.1902C229.537 23.8207 229.177 25.8695 230.843 27.1979L234.288 24.2935C237.125 25.7569 238.791 28.2335 237.62 31.2055C237.215 32.2186 236.404 33.0067 235.121 33.9973C233.68 35.123 232.217 36.1137 231.474 36.1137C229.515 36.1137 227.286 35.2131 226.003 33.7271L228.929 31.273C230.078 32.5564 231.856 33.1192 233.545 33.0742C234.04 33.0742 234.378 32.8491 234.513 32.2862C234.693 31.5882 235.098 29.2917 232.667 27.7607L229.11 30.7552C226.61 29.2467 225.597 26.8601 226.61 24.2709C227.016 23.2803 227.444 22.7174 229.11 21.5016C229.808 20.9838 231.879 19.3853 232.757 19.3853C234.333 19.3853 235.977 20.3534 236.922 21.5692L234.04 23.9783C233.185 23.0326 231.969 22.4247 230.663 22.4022C230.19 22.4022 229.875 22.6274 229.695 23.1902" fill="white"/>
<path id="Vector_15" fill-rule="evenodd" clip-rule="evenodd" d="M171.179 24.3385V28.3011C171.179 31.0929 172.71 32.6915 175.3 32.6915C175.75 32.6915 175.997 32.5338 176.268 31.9259C176.583 31.2505 177.146 29.9221 177.146 28.1885C177.146 25.149 175.547 22.9201 172.778 22.5373M171.179 22.087L172.553 20.556C173.521 19.4978 173.453 19.3402 174.962 19.3402C176.695 19.3402 180.478 20.7812 180.478 26.3648C180.478 28.6838 179.96 30.5751 178.339 32.2637C177.664 32.9616 176.876 33.592 176.133 34.2224C175.345 34.8754 173.859 36.0912 173.071 36.0912C172.485 36.0912 167.442 34.7853 167.442 29.3593V13.9817L171.179 12.3381V22.087Z" fill="white"/>
<path id="Vector_16" fill-rule="evenodd" clip-rule="evenodd" d="M157.31 36.1137C154.068 36.1137 150.083 33.3669 150.083 28.7739C150.083 26.2072 150.939 24.1359 152.154 22.9651C152.582 22.5373 153.911 21.6367 155.284 20.8262C156.184 20.2858 157.513 19.3853 158.594 19.3853C161.746 19.3853 165.235 21.6367 165.235 26.4098C165.235 27.9634 164.65 30.1248 164.222 30.9353C163.772 31.7909 162.669 32.849 160.89 34.2675C159.201 35.6184 158.391 36.1362 157.333 36.1362M160.71 32.6239C161.295 32.1736 161.948 30.3949 161.948 28.7063C161.948 24.2034 158.706 22.3797 156.117 22.4247C155.824 22.4247 155.441 22.4923 155.171 22.6499C154.451 23.1002 153.46 24.8113 153.46 26.59C153.46 29.8771 155.622 32.9166 159.382 32.9166C159.787 32.9166 160.372 32.849 160.687 32.6239" fill="white"/>
<path id="Vector_17" fill-rule="evenodd" clip-rule="evenodd" d="M221.973 32.7139C223.211 32.7139 223.976 32.5113 225.125 32.1961L221.995 35.6408C221.792 35.8435 221.432 36.1362 219.879 36.1362C216.592 36.1362 213.237 33.7721 213.237 28.6613C213.237 26.6575 213.687 24.9914 214.047 24.2934C214.52 23.3253 215.083 22.8525 216.952 21.5241C217.65 21.0288 219.744 19.4077 220.599 19.4077C222.4 19.4077 224.607 21.9519 225.327 23.1226L219.091 28.3686L217.177 29.9671C217.852 31.6782 219.338 32.7364 221.973 32.7364M217.695 22.9876C217.042 24.0007 216.704 25.6218 216.704 27.1978C216.704 27.5355 216.704 27.8507 216.749 28.1885L221.32 24.3384C220.689 23.5504 218.663 21.4115 217.672 22.9876" fill="white"/>
<path id="Vector_18" d="M211.256 15.6027C210.783 15.5351 210.265 15.7378 210.265 16.6383V20.2182H214.16L212.854 22.0419H210.265V38.275L206.82 40.2788V18.4846C206.82 17.2237 207.833 16.1205 209.702 14.7696C211.211 13.6889 212.674 12.7883 213.349 12.7883C214.025 12.7883 215.038 13.3062 215.961 14.1167L213.102 16.5258C212.449 15.9854 211.886 15.6927 211.233 15.6027" fill="white"/>
<path id="Vector_19" fill-rule="evenodd" clip-rule="evenodd" d="M191.172 32.7139C192.411 32.7139 193.176 32.5113 194.324 32.1961L191.195 35.6408C190.992 35.8435 190.632 36.1362 189.101 36.1362C185.814 36.1362 182.459 33.7721 182.459 28.6613C182.459 26.6575 182.932 24.9914 183.27 24.2934C183.743 23.3253 184.305 22.8525 186.174 21.5241C186.872 21.0288 188.966 19.4077 189.822 19.4077C191.623 19.4077 193.829 21.9519 194.55 23.1226L188.291 28.3686L186.377 29.9671C187.052 31.6782 188.538 32.7364 191.172 32.7364M186.895 22.9876C186.242 24.0007 185.904 25.6218 185.904 27.1978C185.904 27.5355 185.904 27.8507 185.949 28.1885L190.542 24.3384C189.912 23.5504 187.885 21.4115 186.895 22.9876Z" fill="white"/>
<path id="Vector_20" d="M243.744 20.2182H246.986L245.681 22.0644H243.767V29.8996C243.767 31.8583 244.217 32.894 245.816 34.1098L244.983 34.6727L242.754 36.1586C240.615 34.47 240.322 32.7364 240.322 31.2279V17.8767L243.767 15.7378" fill="white"/>
<g id="Clip path group">
<mask id="mask0_10306_38941" style="mask-type:luminance" maskUnits="userSpaceOnUse" x="0" y="0" width="93" height="65">
<g id="clippath">
<path id="Vector_21" d="M34.425 50.5004C35.6858 49.4197 36.9016 48.249 38.0949 47.0557C43.1157 50.9282 50.0502 53.2922 58.5158 53.2922C60.5196 53.2922 62.4108 53.1572 64.212 52.887C63.8292 53.5174 63.469 53.9677 63.1538 54.2379C61.9155 55.2285 57.9754 56.0616 52.0991 56.0616C45.7724 56.0616 39.4233 54.1928 34.425 50.5004ZM43.9487 40.684C50.5906 32.9615 56.8046 24.6761 64.9099 19.25C67.1164 23.2801 68.3322 28.1658 68.3322 33.4343C68.3322 38.7027 67.5892 43.2057 66.5985 46.808C65.4503 46.8981 64.2795 46.9881 63.0637 46.9881C54.7108 46.9881 48.4517 44.444 43.9487 40.7065M78.2386 28.5486C78.2386 23.5053 77.1805 18.7547 75.2217 14.657C87.9425 12.0678 94.3592 23.6854 88.3252 34.3349C85.8261 38.5676 80.9854 43.1381 73.5556 45.4571C76.4375 40.5489 78.2386 34.8527 78.2386 28.5486ZM38.5227 10.3567C40.3239 8.91577 44.1514 8.3529 47.0107 8.3529C54.2155 8.3529 60.0017 11.8202 63.7167 17.2912C55.2286 22.6272 48.7444 31.0027 41.9674 38.8378C32.9391 29.4717 32.9841 14.7921 38.5227 10.3567ZM42.5528 3.96253C32.106 11.3924 28.8639 18.6871 28.8639 28.3234C28.8639 34.8752 31.4081 40.8641 36.0911 45.322C34.8978 46.5378 33.682 47.7086 32.4212 48.8343C27.7156 44.534 24.6311 38.365 24.6311 30.3273C24.6311 20.9161 29.2016 12.3155 34.3125 7.69998C29.7194 9.81636 21.7042 14.2518 19.7454 16.976C17.4489 20.1506 14.7472 26.5673 14.7472 35.4156C14.7472 42.8905 17.7416 50.0276 23.0551 55.4086C14.4545 59.8215 8.28545 59.1461 4.95327 56.3317C-0.180084 52.0089 1.486 42.5302 9.23106 38.2524C10.0866 37.7796 8.0603 36.3612 6.57433 37.1942C-0.607864 41.2244 -2.38653 52.4592 3.73747 57.3449C7.88018 60.6771 15.0849 61.5777 24.6987 56.9847C30.3499 61.8929 38.185 64.9999 47.5736 64.9999C51.221 64.9999 53.9228 64.392 64.2345 56.1741C65.8105 54.9133 67.319 53.5174 68.7374 51.9864C81.7735 48.4066 88.3027 38.5001 90.1714 34.4024C95.8677 22.0869 87.9425 10.4468 74.3661 12.9009C69.9983 5.1333 62.2757 0.0224609 52.3918 0.0224609C49.8926 0.0224609 47.5061 0.472755 42.5753 3.98505" fill="white"/>
</g>
</mask>
<g mask="url(#mask0_10306_38941)">
<g id="Group">
<path id="Vector_22" d="M34.425 50.5004C35.6858 49.4197 36.9016 48.249 38.0949 47.0557C43.1157 50.9282 50.0502 53.2922 58.5158 53.2922C60.5196 53.2922 62.4108 53.1572 64.212 52.887C63.8292 53.5174 63.469 53.9677 63.1538 54.2379C61.9155 55.2285 57.9754 56.0616 52.0991 56.0616C45.7724 56.0616 39.4233 54.1928 34.425 50.5004ZM43.9487 40.684C50.5906 32.9615 56.8046 24.6761 64.9099 19.25C67.1164 23.2801 68.3322 28.1658 68.3322 33.4343C68.3322 38.7027 67.5892 43.2057 66.5985 46.808C65.4503 46.8981 64.2795 46.9881 63.0637 46.9881C54.7108 46.9881 48.4517 44.444 43.9487 40.7065M78.2386 28.5486C78.2386 23.5053 77.1805 18.7547 75.2217 14.657C87.9425 12.0678 94.3592 23.6854 88.3252 34.3349C85.8261 38.5676 80.9854 43.1381 73.5556 45.4571C76.4375 40.5489 78.2386 34.8527 78.2386 28.5486ZM38.5227 10.3567C40.3239 8.91577 44.1514 8.3529 47.0107 8.3529C54.2155 8.3529 60.0017 11.8202 63.7167 17.2912C55.2286 22.6272 48.7444 31.0027 41.9674 38.8378C32.9391 29.4717 32.9841 14.7921 38.5227 10.3567ZM42.5528 3.96253C32.106 11.3924 28.8639 18.6871 28.8639 28.3234C28.8639 34.8752 31.4081 40.8641 36.0911 45.322C34.8978 46.5378 33.682 47.7086 32.4212 48.8343C27.7156 44.534 24.6311 38.365 24.6311 30.3273C24.6311 20.9161 29.2016 12.3155 34.3125 7.69998C29.7194 9.81636 21.7042 14.2518 19.7454 16.976C17.4489 20.1506 14.7472 26.5673 14.7472 35.4156C14.7472 42.8905 17.7416 50.0276 23.0551 55.4086C14.4545 59.8215 8.28545 59.1461 4.95327 56.3317C-0.180084 52.0089 1.486 42.5302 9.23106 38.2524C10.0866 37.7796 8.0603 36.3612 6.57433 37.1942C-0.607864 41.2244 -2.38653 52.4592 3.73747 57.3449C7.88018 60.6771 15.0849 61.5777 24.6987 56.9847C30.3499 61.8929 38.185 64.9999 47.5736 64.9999C51.221 64.9999 53.9228 64.392 64.2345 56.1741C65.8105 54.9133 67.319 53.5174 68.7374 51.9864C81.7735 48.4066 88.3027 38.5001 90.1714 34.4024C95.8677 22.0869 87.9425 10.4468 74.3661 12.9009C69.9983 5.1333 62.2757 0.0224609 52.3918 0.0224609C49.8926 0.0224609 47.5061 0.472755 42.5753 3.98505" fill="url(#paint0_linear_10306_38941)"/>
</g>
</g>
</g>
</g>
<defs>
<linearGradient id="paint0_linear_10306_38941" x1="22.8468" y1="13.6467" x2="68.0446" y2="58.8444" gradientUnits="userSpaceOnUse">
<stop stop-color="#FBBA00"/>
<stop offset="0.49" stop-color="#FBBA00"/>
<stop offset="0.92" stop-color="#B37C00"/>
<stop offset="1" stop-color="#B37C00"/>
</linearGradient>
<clipPath id="clip0_10306_38941">
<rect width="246.986" height="65" fill="white"/>
</clipPath>
</defs>
</svg>
